# xmcd
#
# Track frame offsets:
#	150
#	18109
#	36532
#	50895
#	65372
#	79146
#	93806
#	108538
#	121930
#	136938
#
# Disc length: 2026 seconds
#
# Revision: 0
# Processed by: cddbd v1.5.2PL0 Copyright (c) Steve Scherf et al.
# Submitted via: dBpowerAMP V4.0
#
DISCID=8207e80a
DTITLE=Maria Mena - Cause and Effect
DYEAR=2008
DGENRE=Pop
TTITLE0=Power Trip Ballad
TTITLE1=Belly Up
TTITLE2=All This Time (Pick-Me-Up Song)
TTITLE3=Cause and Effect
TTITLE4=I`m On Your Side
TTITLE5=Eyesore
TTITLE6=Where Were You
TTITLE7=I`m in Love
TTITLE8=Self-Fulfilling Prophecy
TTITLE9=Dear ..
EXTD=
EXTT0=
EXTT1=
EXTT2=
EXTT3=
EXTT4=
EXTT5=
EXTT6=
EXTT7=
EXTT8=
EXTT9=
PLAYORDER=
